<svg xmlns="http://www.w3.org/2000/svg" width="24" height="24" fill="none">
  <g clip-path="url(#a)">
    <path fill="#FFC900" d="M19.088 8.193c-3.633-1.846-7.448-1.632-8.518.478-.447.879-.34 1.95.193 3.032-.272-.686-.296-1.354-.012-1.914.776-1.528 3.539-1.682 6.17-.346 2.631 1.337 4.135 3.66 3.36 5.186-.776 1.528-3.539 1.683-6.17.346a8.586 8.586 0 0 1-1.928-1.328 11.63 11.63 0 0 0 3.027 2.184c3.633 1.846 7.448 1.632 8.518-.477 1.072-2.11-1.005-5.316-4.638-7.162l-.002.001Zm2.532 6.711.125-.116-.038.116h.214l-.252.116-.044.136-.066-.085-.234.108.185-.173-.078-.102h.188Zm-1.05.315-.135-.176h.322l.215-.201-.065.201h.37l-.434.2-.075.234-.113-.148-.403.186.318-.298v.002Zm1.368.614-.187.582-.281-.365-1 .462.789-.739-.335-.437h.801l.535-.5-.162.5h.919l-1.078.498-.001-.001Z"/>
    <path fill="#FFC900" d="M16.141 16.662h-.99c-.36 0-.691-.135-.94-.356a2.8 2.8 0 0 1-1.401.356h-.92a1.418 1.418 0 0 1-1.418-1.418v-3.557c0-1.471 1.104-2.539 2.624-2.539h.92c.783 0 1.418.636 1.418 1.418h1.18c1.225 0 2.222.998 2.222 2.223v1.324c0 1.477-1.133 2.549-2.695 2.549Z"/>
    <path fill="#FFC900" d="M11.464 16.662H9.596c-.136 0-.27-.016-.397-.046a1.93 1.93 0 0 1-.411.046h-1.71c-.136 0-.27-.016-.397-.046a1.93 1.93 0 0 1-.41.046H4.558a1.744 1.744 0 0 1-1.742-1.742v-2.936c0-.783.635-1.418 1.418-1.418H6.36c.048 0 .095.003.142.007.046-.004.093-.007.141-.007h2.269c.048 0 .095.003.141.007.047-.004.094-.007.142-.007h2.268c.783 0 1.418.635 1.418 1.418v3.26c0 .783-.635 1.418-1.418 1.418Z"/>
    <path fill="#fff" d="M11.429 15.963H9.56c-.138 0-.27-.027-.39-.077a1.264 1.264 0 0 1-.418.077h-1.71c-.138 0-.27-.027-.39-.077a1.264 1.264 0 0 1-.417.077H4.524c-.57 0-1.034-.464-1.034-1.033v-2.936a.71.71 0 0 1 .709-.71h2.126a.67.67 0 0 1 .142.015.67.67 0 0 1 .142-.014h2.268a.67.67 0 0 1 .142.014.67.67 0 0 1 .142-.014h2.268a.71.71 0 0 1 .709.709v3.26a.71.71 0 0 1-.71.709ZM9.87 14.545h.85v-1.843H9.87v1.751c0 .031.002.063 0 .092Zm-2.538 0h.835v-1.843h-.85v1.693a.9.9 0 0 1 .015.15Zm-2.425 0h.709v-1.843h-.71v1.843Z"/>
    <path fill="#fff" d="M16.107 15.963h-.99a.709.709 0 0 1-.71-.709v-.106c-.326.506-.908.815-1.631.815h-.92a.71.71 0 0 1-.71-.709v-3.557c0-1.077.789-1.83 1.916-1.83h.92a.71.71 0 0 1 .709.709v.709h1.888c.835 0 1.514.679 1.514 1.514v1.324c0 1.083-.817 1.84-1.986 1.84Zm-.282-1.418h.282c.568 0 .568-.306.568-.422v-1.324a.096.096 0 0 0-.096-.097h-.754v1.843Zm-3.26 0h.21c.498 0 .498-.289.498-.412v-1.324c0-.094.011-.185.034-.271a.73.73 0 0 1-.034-.217v-1.035h-.211c-.498 0-.498.29-.498.413v2.848-.002Z"/>
    <path fill="#FFC900" d="M11.464 11.984v3.26H9.596a.326.326 0 0 1-.326-.326c0 .18-.302.326-.482.326h-1.71a.326.326 0 0 1-.326-.326c0 .18-.302.326-.482.326H4.56a.325.325 0 0 1-.325-.325v-2.935h2.127v2.81c.204 0 .349-.144.283-.321v-2.49h2.268v2.812a.289.289 0 0 0 .284-.322v-2.49h2.268ZM17.418 12.79v1.324c0 .69-.497 1.131-1.277 1.131h-.991V12.41h-.744a.39.39 0 0 0-.39.39v1.324c0 .685-.47 1.121-1.207 1.121h-.92V11.69c0-.685.471-1.122 1.207-1.122h.92v1.744c0-.18.31-.326.495-.326h2.102c.445 0 .805.362.805.805Z"/>
    <path fill="#FFC900" d="M2.566 15.624a.52.52 0 0 1-.525-.495l-.235-4.11-1.376-.217a.508.508 0 0 1-.002-1.006l1.41-.224.225-1.41a.509.509 0 0 1 1.005 0l.224 1.41 1.41.224c.248.04.43.251.43.504 0 .252-.18.463-.428.503l-1.377.218-.235 4.111a.518.518 0 0 1-.525.495l-.001-.003Zm-.227-5.321a.692.692 0 0 1 .225.245.684.684 0 0 1 .227-.245.681.681 0 0 1-.227-.223.682.682 0 0 1-.226.223h.001Z"/>
    <path fill="#FFC900" d="m3.102 9.971 1.534.244c.093.015.093.15 0 .166l-1.514.24a.252.252 0 0 0-.213.236l-.244 4.249c-.007.124-.191.124-.198 0l-.244-4.249a.252.252 0 0 0-.213-.235L.496 10.38c-.093-.016-.093-.15 0-.166L2.03 9.97a.253.253 0 0 0 .21-.21l.244-1.534c.014-.093.15-.093.164 0l.244 1.534a.253.253 0 0 0 .21.21Z"/>
    <path fill="#fff" d="M2.566 15.34a.238.238 0 0 1-.24-.227l-.245-4.249a.112.112 0 0 0-.093-.103L.474 10.52a.222.222 0 0 1-.19-.223c0-.113.078-.204.19-.223l1.534-.243a.108.108 0 0 0 .092-.093l.243-1.533a.22.22 0 0 1 .223-.19c.113 0 .204.078.223.19l.243 1.533a.11.11 0 0 0 .093.093l1.533.243c.112.019.19.11.19.223a.222.222 0 0 1-.19.223l-1.514.24a.112.112 0 0 0-.093.104l-.244 4.249a.238.238 0 0 1-.24.228ZM.88 10.298l1.153.183a.395.395 0 0 1 .331.367l.202 3.519.2-3.519a.395.395 0 0 1 .333-.367l1.152-.183-1.172-.186a.394.394 0 0 1-.328-.327L2.565 8.61l-.186 1.173a.394.394 0 0 1-.328.327l-1.172.186Z"/>
  </g>
  <defs>
    <clipPath id="a">
      <path fill="#fff" d="M0 0h24v24H0z"/>
    </clipPath>
  </defs>
</svg>
