<svg xmlns="http://www.w3.org/2000/svg" width="933.333" height="933.333" version="1.0" viewBox="0 0 700 700">
  <path d="M389.9 204.5c-40.4 5.7-68 22.7-81.5 50-6.1 12.4-7.8 21.4-7.1 38 .2 7.1.8 13.8 1.2 14.7.7 1.7-3.4 1.8-77.5 1.8s-78.2-.1-77.4-1.8c.4-.9.9-3.7 1.2-6.2.4-5.5-2.6-10.7-7.8-13.2-1.9-.9-12.7-3.1-24-4.8-11.3-1.8-20.8-3.5-21.1-3.9-.3-.3-2.1-10.1-3.8-21.6-2-12.8-3.9-22.2-5-24-3.9-6.7-11.7-9.2-18.7-5.9-5.8 2.8-7 6.1-10.9 29.9-1.9 12-3.6 22-3.8 22-.1.1-9.6 1.7-21.2 3.5s-22.5 3.9-24.2 4.7c-6.8 3.1-9.9 14.3-5.6 20.1 4.1 5.5 6.1 6.2 28.2 9.7 11.7 1.8 21.5 3.6 21.7 3.8.3.3 2.1 27.9 4 61.3 3.8 66.7 3.7 65.7 10.3 70.1 4.1 2.7 10.8 3 15.2.7 1.7-.8 3.2-1.4 3.2-1.2 3.5 7.1 6.9 12.6 9.9 16.2 5.3 6.2 14.7 12.2 23.2 14.8 7.4 2.4 10.8 2.5 75.9 2.2H268c126.2.2 122.6.4 139-6.7l7.6-3.3 5 3.3c8.8 6 13.3 6.8 37.4 6.8 13.2 0 24.8-.5 30-1.4 8.4-1.3 8.6-1.3 18.6 1.7 13.5 4 30.3 7.7 44.9 9.8 14.8 2.2 49.1 2.5 61 .5 28.8-4.6 50.3-14.2 65.5-29.1 33.8-33.2 29.8-84.9-10.8-139.3-9.4-12.7-37.2-40.5-51.2-51.3-47.9-37-105.2-62.1-162-70.9-14.5-2.3-50.5-2.9-63.1-1zm-310 31c.9.9 2.9 10.2 5.3 25.2 2.1 13 4.2 24.1 4.7 24.6s11.6 2.6 24.7 4.7c20.7 3.4 24.1 4.1 25.6 6 2 2.5 2.2 3.8.8 7.4-1.2 3.1-2.8 3.6-29.4 7.8-18.4 2.8-20.9 3.5-21.7 5.3-.4 1.1-2.2 27.9-3.9 59.5-3.7 68.4-3.6 67.6-7.1 70.2-3.8 2.9-8.6 1.7-10.4-2.5-1-2.3-2.3-20.1-4.4-60.2-3.7-67.7-3.7-68.3-5.9-68.9-1-.3-11.8-2.1-24.2-4.1C9.6 306.6 8 306 8 300c0-5.2 2.3-6 27.6-10.1 13-2 24-4.1 24.4-4.6.4-.4 2.4-11.4 4.4-24.3 3.4-21.8 3.9-23.7 6.3-25.8 2.8-2.5 6.5-2.4 9.2.3zm338.6 15.2c68.9 9.5 141.8 57.4 168.6 110.5 25.6 50.9 3.3 92.9-53.8 101.2l-4.2.6 4.9-6.5c5.6-7.3 10.1-16.3 12.6-25 2.6-9.1 3.3-59.1.9-70.7-3.8-19.1-16.2-35.8-33.1-44.6-12.2-6.3-17.4-7.2-42.5-7.2h-21.6l-1.1-6.6c-2.9-17.5-16.1-31.2-33.1-34.4-7-1.3-34.4-1.3-45.1.1-17.8 2.2-32.7 9.4-44.5 21.3-3.8 3.9-8.6 9.9-10.5 13.3-2.6 4.7-4.1 6.2-5.7 6.3-3.3 0-3.5-1.2-1.8-9.2 8-38.7 49.9-57.5 110-49.1zm0 39.8c3.6 2.2 5.7 4.5 7.7 8.4 2.6 5 2.8 6.1 2.8 17.7V329h30.9c34.9 0 37.9.5 48.5 7.5 7.1 4.7 11.6 10.1 15.8 19.1l3.3 6.9v31c0 29.6-.1 31.3-2.3 36.9-6.7 18-21.8 30.3-41.6 34.1-11.1 2.1-45.2 2.1-50.4-.1-7.1-2.9-13.1-11-13.2-17.7 0-2.6-.2-2.5-5.9 3.2-3.8 3.8-8.5 7.2-13.2 9.5-13.2 6.5-15.2 6.7-76.6 6.2-30.1-.3-56.6-.4-58.8-.4-2.2.1-18.1.2-35.2.1h-36.5c-2.9 0-19.9 0-37.8.1l-32.5.1-5.1-2.7c-6-3.2-11.8-9.3-14.8-15.7-2.1-4.5-2.1-5.7-2.1-53.6 0-48.3 0-49.1 2.2-53 2.7-5 5.8-8 10.5-10 3.3-1.3 16.1-1.5 107.7-1.5h104l1.2-4.3c3-11.3 12.5-23.5 23-29.4 12-6.7 20.3-8.2 45.5-8l18.1.2 4.8 3zM636.6 434c3.5 0 2.9 1.7-1 3-2 .6-3.6 1.9-3.9 3.2-.5 1.6-.9 1.9-1.9 1-.9-.7-2-.7-3.8.3-4 2.3-4.6 1.7-1.6-1.4 1.7-1.8 2.4-3.1 1.7-3.5-2-1.3-1.1-2.6 1.8-2.6 1.6 0 3.5-.7 4.2-1.7 1.3-1.5 1.4-1.5 1.7 0 .2 1 1.3 1.7 2.8 1.7zm-25.2 1.4c-.6 2.4-.4 2.5 4.8 2.8l5.3.3-6.7 3.2c-5.7 2.8-6.8 3.8-7.8 6.9l-1.3 3.7-1.7-2.3-1.7-2.3-5.7 2.6c-3.1 1.4-5.6 2.2-5.6 1.7 0-.5 1.9-2.4 4.1-4.4 4.1-3.5 4.1-3.6 2.5-6-.9-1.4-1.6-2.8-1.6-3.1 0-.3 2.2-.5 4.8-.5 3.9 0 5.3-.5 7.2-2.5 3-3.2 4.2-3.2 3.4-.1zm35.7 5.4-1.9 6.2h13.1c7.3 0 12.7.4 12.2.9-.6.4-7.6 3.9-15.7 7.6l-14.8 6.8-2.6 8.6-2.6 8.6-2.2-2.5c-1.1-1.4-3.1-3.8-4.4-5.4l-2.2-2.9-9.3 4.3c-5 2.3-11.7 5.3-14.7 6.6l-5.5 2.4 11.4-10.9c7.8-7.6 11.1-11.4 10.5-12.3-.4-.7-2.6-3.6-4.7-6.3l-4-5 11.8-.3 11.8-.3 7.6-7c4.1-3.8 7.7-6.6 7.9-6.1.1.5-.6 3.6-1.7 7z"/>
  <path d="M72.1 271.1c-2.5 16.2-3.7 19.9-7.4 22.3-1.2.8-9.4 2.7-18.1 4.1-8.8 1.4-16.1 2.7-16.3 2.8-.1.2 6.4 1.4 14.5 2.6 8.1 1.3 16.1 2.9 17.9 3.6 6.2 2.6 6.3 3.5 9.2 54 1.8 32.5 2.8 44.4 3.3 40.5.4-3 1.7-23.5 2.9-45.5 1.4-26.2 2.6-41.1 3.5-43.2 2.1-5.2 5.9-6.7 22.9-9.3 8.5-1.3 15.4-2.5 15.2-2.6-.2-.2-7.4-1.5-16.2-2.9-8.8-1.4-17-3.2-18.2-4-4-2.7-5.1-5.7-7.3-20-1.2-7.7-2.5-14.9-2.9-15.9-.4-1.2-1.6 3.9-3 13.5zM369.5 310.4c-9.2 2.9-15.8 8.6-19.7 17.1l-2.3 5-.3 55.8-.3 55.9 18.8-.4c17.8-.3 19.1-.4 24.3-2.9 7.4-3.5 11-6.7 14.5-13.1l3-5.3.5-26.5c.4-23.1.7-26.8 2.3-29.1 3.1-4.6 5.9-5.4 19.1-5.4h12.1l.3 41.2.2 41.3h18.4c15.6 0 19.3-.3 24.7-2 10-3.1 15.9-8.3 20.2-17.7 2.1-4.6 2.2-6.1 2.2-30.8 0-24.7-.1-26.2-2.1-30-2.6-4.8-6.7-9-10.9-11.3-2.6-1.5-7.7-1.7-38-2-38.9-.3-41.1 0-46 6.1l-2.5 3.2V309l-17.2.1c-11 0-18.8.5-21.3 1.3zM124 394.1v44.1l3 2.9 2.9 3 29.5-.3c28.1-.3 29.6-.4 32.3-2.4 1.5-1.1 3.3-3.1 4-4.4 1.1-2.3 1.2-2.3 2.6 1.3.9 1.9 2.4 4 3.5 4.6 1.4.7 11.9 1.1 29.8 1.1 26.2 0 28-.1 32.1-2.1 2.4-1.2 5-3.3 5.8-4.7 1.3-2.5 1.4-2.5 1.5-.6 0 1.2 1.2 3.3 2.6 4.8l2.7 2.6H334v-94h-64.9l-.3 38.5c-.3 36.9-.4 38.5-2.3 40.4-1.1 1-3 2.2-4.2 2.6l-2.3.6V350h-66.1l.1 38.7.2 38.8-2.7 2.2c-1.4 1.3-3.5 2.3-4.6 2.3-1.8 0-1.9-1.1-1.9-41v-41h-61v44.1z"/>
</svg>
