<svg width="818" height="347" fill="none" xmlns="http://www.w3.org/2000/svg">
  <path d="M650.362 43.642C526.66-19.199 396.78-11.911 360.34 59.907c-15.203 29.924-11.583 66.412 6.564 103.238-9.266-23.361-10.087-46.093-.386-65.158 26.401-52.029 120.469-57.29 210.048-11.776 89.578 45.513 140.787 124.571 114.386 176.552-26.4 52.029-120.468 57.29-210.047 11.776-25.29-12.838-47.347-28.379-65.64-45.224 27.318 27.801 62.213 53.67 103.045 74.376 123.702 62.84 253.582 55.552 290.022-16.265 36.488-71.818-34.22-180.992-157.922-243.833l-.048.048Zm79.829 228.484h6.371l4.248-3.958-1.303 3.958h7.288l-8.592 3.958-1.496 4.633-2.22-2.896-7.964 3.668 6.275-5.888-2.655-3.475h.048Zm-29.393 10.715-4.585-5.985h10.956l7.337-6.854-2.221 6.854h12.597l-14.769 6.805-2.558 7.964-3.861-5.02-13.707 6.323 10.811-10.136v.049Zm46.576 20.898-6.371 19.837-9.557-12.452-34.074 15.734 26.883-25.146-11.39-14.865h27.269l18.196-17.038-5.502 17.038h31.275l-36.681 16.94-.048-.048Z" fill="#fff"/>
  <path d="M550.02 331.974h-33.737a48.149 48.149 0 0 1-31.999-12.115c-13.563 7.771-29.78 12.115-47.686 12.115h-31.323c-26.642 0-48.265-21.623-48.265-48.265V162.614c0-50.099 37.598-86.442 89.338-86.442h31.323c26.642 0 48.265 21.622 48.265 48.264h40.156c41.749 0 75.679 33.979 75.679 75.679v45.079c0 50.292-38.564 86.78-91.751 86.78Z" fill="#fff"/>
  <path d="M390.795 331.974h-63.613a59.53 59.53 0 0 1-13.514-1.544c-4.633 1.013-9.363 1.544-13.996 1.544h-58.207c-4.634 0-9.171-.531-13.515-1.544-4.633 1.013-9.363 1.544-13.996 1.544h-58.256c-32.723 0-59.317-26.594-59.317-59.317v-99.956c0-26.642 21.623-48.264 48.265-48.264h72.397c1.641 0 3.233.096 4.826.241a52.915 52.915 0 0 1 4.827-.241h77.223c1.641 0 3.234.096 4.826.241a52.915 52.915 0 0 1 4.827-.241h77.223c26.642 0 48.265 21.622 48.265 48.264v111.008c0 26.643-21.623 48.265-48.265 48.265Z" fill="#fff"/>
  <path d="M389.589 308.179h-63.613c-4.73 0-9.219-.917-13.321-2.606-4.875 1.737-9.798 2.606-14.19 2.606h-58.207c-4.73 0-9.218-.917-13.321-2.606-4.875 1.737-9.798 2.606-14.19 2.606h-58.255c-19.402 0-35.185-15.782-35.185-35.185v-99.955c0-13.322 10.811-24.133 24.132-24.133h72.397c1.641 0 3.282.145 4.827.483 1.544-.338 3.185-.483 4.826-.483h77.223c1.641 0 3.282.145 4.827.483 1.544-.338 3.185-.483 4.826-.483h77.224c13.321 0 24.132 10.811 24.132 24.133v111.008c0 13.321-10.811 24.132-24.132 24.132Zm-53.043-48.264h28.91v-62.744h-28.958v59.606c.048 1.062.096 2.124.048 3.138Zm-86.394 0h28.428v-62.744h-28.959v57.628c.338 1.689.483 3.426.531 5.116Zm-82.58 0h24.132v-62.744h-24.132v62.744Z" fill="#000"/>
  <path d="M548.86 308.179h-33.737c-13.321 0-24.132-10.811-24.132-24.132v-3.62c-11.101 17.23-30.937 27.752-55.552 27.752h-31.324c-13.321 0-24.132-10.811-24.132-24.132V162.951c0-36.681 26.835-62.309 65.205-62.309h31.324c13.321 0 24.132 10.811 24.132 24.132v24.132h64.288c28.428 0 51.547 23.119 51.547 51.547v45.079c0 36.874-27.8 62.647-67.619 62.647Zm-9.604-48.264h9.604c19.354 0 19.354-10.426 19.354-14.383v-45.079a3.285 3.285 0 0 0-3.282-3.282h-25.676v62.744Zm-111.009 0h7.192c16.94 0 16.94-9.846 16.94-14.045v-45.08c0-3.185.387-6.274 1.159-9.218-.724-2.317-1.159-4.826-1.159-7.384v-35.234h-7.191c-16.941 0-16.941 9.846-16.941 14.045v96.964-.048Z" fill="#000"/>
  <path d="M390.795 172.701v111.008h-63.613c-6.129 0-11.1-4.971-11.1-11.101 0 6.13-10.281 11.101-16.41 11.101h-58.207c-6.13 0-11.101-4.971-11.101-11.101 0 6.13-10.281 11.101-16.41 11.101h-58.255c-6.082 0-11.053-4.923-11.053-11.052v-99.956h72.397v95.708c6.95 0 11.873-4.923 9.653-10.956v-84.752h77.223v95.708c5.502 0 10.377-4.923 9.653-10.956v-84.752h77.223ZM593.506 200.163v45.079c0 23.505-16.941 38.515-43.486 38.515h-33.737v-96.529h-25.339c-7.336 0-13.273 5.937-13.273 13.273v45.079c0 23.312-16.024 38.177-41.073 38.177h-31.324V162.662c0-23.312 16.024-38.178 41.074-38.178h31.323v59.366c0-6.13 10.57-11.101 16.845-11.101h71.576c15.155 0 27.414 12.307 27.414 27.414Z" fill="#fff"/>
  <path d="M87.839 296.644c-9.605 0-17.279-7.239-17.858-16.844l-8.012-139.919-46.865-7.433C6.658 131.097.48 123.905.48 115.314c0-8.591 6.13-15.734 14.576-17.085l48.023-7.626 7.626-48.023c1.351-8.447 8.543-14.576 17.085-14.624 8.592 0 15.783 6.13 17.134 14.624l7.626 48.023 48.023 7.626c8.447 1.351 14.625 8.543 14.625 17.134 0 8.591-6.13 15.782-14.576 17.134l-46.865 7.432-8.012 139.967c-.531 9.605-8.205 16.845-17.858 16.845l-.048-.097Zm-7.722-181.185c3.185 2.124 5.84 4.971 7.673 8.35 1.835-3.379 4.49-6.226 7.723-8.35a23.181 23.181 0 0 1-7.723-7.577 23.181 23.181 0 0 1-7.722 7.577h.049Z" fill="#fff"/>
  <path d="m106.082 104.165 52.223 8.302c3.185.531 3.185 5.116 0 5.647l-51.547 8.205c-4.006.627-6.998 3.957-7.24 8.011l-8.301 144.649c-.241 4.248-6.516 4.248-6.757 0L76.158 134.33c-.24-4.054-3.233-7.384-7.24-8.011l-51.546-8.205c-3.185-.531-3.185-5.116 0-5.647l52.222-8.302a8.606 8.606 0 0 0 7.144-7.143L85.039 44.8c.483-3.186 5.116-3.186 5.599 0l8.301 52.222a8.605 8.605 0 0 0 7.143 7.143Z" fill="#fff"/>
  <path d="M87.84 286.991c-4.441 0-7.965-3.33-8.206-7.77l-8.301-144.649c-.097-1.786-1.448-3.234-3.186-3.524l-51.546-8.205c-3.813-.627-6.468-3.716-6.468-7.577 0-3.861 2.655-6.95 6.468-7.578l52.222-8.301a3.686 3.686 0 0 0 3.137-3.137l8.302-52.222c.579-3.813 3.716-6.468 7.577-6.468 3.861 0 6.95 2.655 7.578 6.468l8.301 52.222a3.739 3.739 0 0 0 3.137 3.137l52.223 8.301c3.813.628 6.467 3.717 6.467 7.578s-2.654 6.95-6.467 7.577l-51.547 8.205c-1.737.29-3.089 1.738-3.185 3.524l-8.302 144.649c-.241 4.44-3.764 7.77-8.205 7.77ZM30.403 115.266l39.24 6.226c6.177.965 10.956 6.226 11.293 12.501l6.854 119.792 6.853-119.792c.338-6.275 5.116-11.536 11.294-12.501l39.239-6.226-39.914-6.323a13.42 13.42 0 0 1-11.15-11.149L87.792 57.88l-6.323 39.915a13.42 13.42 0 0 1-11.149 11.149l-39.915 6.323Z" fill="#000"/>
</svg>
