<svg width="24" height="24" fill="none" xmlns="http://www.w3.org/2000/svg"><g clip-path="url(#a)" fill="#fff"><path d="M12 3.045c4.537 0 8.38 2.969 9.698 7.07a3.271 3.271 0 0 1-1.545 6.343 8.76 8.76 0 0 0 .608-3.218A8.763 8.763 0 0 0 12 4.47a8.764 8.764 0 0 0-8.761 8.77 8.75 8.75 0 0 0 .61 3.218 3.188 3.188 0 0 1-.58.053 3.272 3.272 0 0 1-.966-6.395c1.316-4.102 5.16-7.071 9.697-7.071Z"/><path d="M12 3.045c4.537 0 8.38 2.969 9.698 7.07a3.271 3.271 0 0 1-1.545 6.343 8.76 8.76 0 0 0 .608-3.218A8.763 8.763 0 0 0 12 4.47a8.764 8.764 0 0 0-8.761 8.77 8.75 8.75 0 0 0 .61 3.218 3.188 3.188 0 0 1-.58.053 3.272 3.272 0 0 1-.966-6.395c1.316-4.102 5.16-7.071 9.697-7.071Z"/><path fill-rule="evenodd" clip-rule="evenodd" d="M19.707 13.24A7.707 7.707 0 0 1 12 20.955a7.707 7.707 0 0 1-7.707-7.715A7.707 7.707 0 0 1 12 5.526a7.707 7.707 0 0 1 7.707 7.714ZM12 18.146a4.904 4.904 0 0 0 4.902-4.906H7.098A4.904 4.904 0 0 0 12 18.146Z"/><path fill-rule="evenodd" clip-rule="evenodd" d="M19.707 13.24A7.707 7.707 0 0 1 12 20.955a7.707 7.707 0 0 1-7.707-7.715A7.707 7.707 0 0 1 12 5.526a7.707 7.707 0 0 1 7.707 7.714ZM12 18.146a4.904 4.904 0 0 0 4.902-4.906H7.098A4.904 4.904 0 0 0 12 18.146Z"/></g><defs><clipPath id="a"><path fill="#fff" d="M0 0h24v24H0z"/></clipPath></defs></svg>