<svg xmlns="http://www.w3.org/2000/svg" width="24" height="24" fill="none">
  <path fill="#0FBCF9" d="M3.09 6.061c.724-.106 1.485-.088 2.18.166.493.177.952.496 1.221.956-.5.378-1.001.752-1.503 1.128-.18-.31-.475-.56-.828-.646-.448-.106-.945-.038-1.328.224-.365.242-.602.646-.686 1.071-.055.291-.074.603.033.885.118.316.403.554.723.648.43.122.909.065 1.294-.164.206-.118.38-.284.54-.459l1.228 1.126a3.06 3.06 0 0 1-1.403.972c-.665.212-1.38.248-2.07.157-.706-.1-1.408-.4-1.887-.94a2.39 2.39 0 0 1-.59-1.386c-.066-.81.139-1.652.627-2.308.571-.792 1.495-1.28 2.448-1.43ZM5.92 12.163c.41-2.053.823-4.106 1.232-6.16h2.945c.597.021 1.221.147 1.701.524.362.273.597.697.655 1.145.08.6-.032 1.241-.382 1.744-.296.444-.751.766-1.249.948.34.602.687 1.199 1.029 1.799H9.686c-.293-.516-.582-1.035-.874-1.552h-.5c-.102.518-.204 1.035-.308 1.553-.695-.002-1.389 0-2.083-.001Zm2.702-3.12h.855c.197-.004.402-.04.569-.151a.696.696 0 0 0 .3-.442c.041-.204.037-.437-.094-.61-.114-.143-.301-.204-.478-.222-.287-.025-.576-.01-.864-.013-.095.48-.195.958-.288 1.437ZM12.287 12.164l1.23-6.16h6.373c-.297.523-.6 1.043-.896 1.567-1.248.002-2.496 0-3.744.001-.046.237-.094.474-.138.71l2.205.001c-.295.5-.588 1.002-.883 1.503h-1.632c-.054.266-.103.533-.158.8h2.615c-.302.527-.606 1.051-.908 1.577h-4.064ZM20.4 6.003h2.11c.497 2.053.995 4.107 1.49 6.16h-1.956c-.3-1.29-.6-2.58-.896-3.87-.775 1.29-1.553 2.579-2.328 3.87h-1.96l3.54-6.16ZM0 12.587c.713.002 1.425 0 2.138 0 .253 1.194.508 2.388.763 3.58.736-1.194 1.48-2.382 2.214-3.577.714-.006 1.429 0 2.143-.003-1.24 2.055-2.485 4.107-3.726 6.16h-2.05L0 12.588ZM8.474 12.588h2.085l-1.23 6.15c-.23.024-.468.003-.701.01H7.243l1.231-6.16ZM12.03 12.587c1.895.002 3.79 0 5.685.001-.105.54-.217 1.078-.325 1.618h-1.8c-.304 1.513-.604 3.028-.906 4.541-.694.002-1.389 0-2.084 0 .302-1.513.602-3.028.905-4.541h-1.801l.326-1.619ZM18.938 12.588h5.01c-.105.523-.213 1.045-.317 1.569-.988 0-1.976-.003-2.963.001-.045.24-.093.478-.14.717h1.724l-.3 1.503c-.577.002-1.155 0-1.732 0l-.156.794c1.029-.002 2.057 0 3.085 0-.105.525-.214 1.05-.318 1.576h-5.124l1.231-6.16Z"/>
</svg>
