<svg xmlns="http://www.w3.org/2000/svg" width="24" height="24" fill="none">
  <g clip-path="url(#a)">
    <path fill="#FF8200" d="M4.967 0h14.066A4.967 4.967 0 0 1 24 4.967v14.066A4.967 4.967 0 0 1 19.033 24H0V4.967A4.967 4.967 0 0 1 4.967 0Z"/>
    <path fill="#fff" d="M24 4.967c0-.113-.006-.226-.014-.345l-3.64 3.895a1.194 1.194 0 0 1-1.69.057l-2.642-2.47a1.195 1.195 0 0 1-.057-1.69l4.038-4.32A5.02 5.02 0 0 0 19.034 0h-4.671a7.407 7.407 0 0 0-2.79 9.106L0 21.486V24h5.874L15.96 13.209a7.405 7.405 0 0 0 7.834-1.941l.205-.226V4.967Z"/>
  </g>
  <defs>
    <clipPath id="a">
      <path fill="#fff" d="M0 0h24v24H0z"/>
    </clipPath>
  </defs>
</svg>
