<svg xmlns="http://www.w3.org/2000/svg" width="24" height="24" fill="none">
  <g clip-path="url(#a)">
    <path fill="#1ABCFE" d="M12 12a4 4 0 1 1 8 0 4 4 0 0 1-8 0Z"/>
    <path fill="#0ACF83" d="M4 20a4 4 0 0 1 4-4h4v4a4 4 0 1 1-8 0Z"/>
    <path fill="#FF7262" d="M12 0v8h4a4 4 0 1 0 0-8h-4Z"/>
    <path fill="#F24E1E" d="M4 4a4 4 0 0 0 4 4h4V0H8a4 4 0 0 0-4 4Z"/>
    <path fill="#A259FF" d="M4 12a4 4 0 0 0 4 4h4V8H8a4 4 0 0 0-4 4Z"/>
  </g>
  <defs>
    <clipPath id="a">
      <path fill="#fff" d="M0 0h24v24H0z"/>
    </clipPath>
  </defs>
</svg>
