<svg xmlns="http://www.w3.org/2000/svg" width="24" height="24" fill="none">
  <g clip-path="url(#a)">
    <g fill="#D50C2D" clip-path="url(#b)">
      <path d="M23.025 12.155c.219-.038.424-.128.6-.264a.814.814 0 0 0 .222-.633c0-.19-.052-.375-.151-.537a.855.855 0 0 0-.699-.422h-.144l-.337-.012h-1.527c-.093 0-.132.039-.132.132v2.675c0 .093.038.133.132.133h.397c.093 0 .132-.039.132-.133v-.886h.486a.46.46 0 0 1 .287.12l.77.774c.07.072.164.115.264.122h.592c.092 0 .115-.054.05-.12l-.942-.949Zm-.1-.569h-1.41v-.674h1.41a.282.282 0 0 1 .247.284v.104a.283.283 0 0 1-.248.286ZM20.24 12.605h-2.186v-.552h1.745c.092 0 .132-.038.132-.132V11.6c0-.093-.039-.133-.133-.133h-1.746v-.55h2.188c.093 0 .133-.038.133-.132v-.366c0-.092-.039-.132-.133-.132h-2.727c-.093 0-.133.039-.133.132v2.678c0 .093.039.132.133.132h2.727c.093 0 .133-.038.133-.132v-.361c0-.093-.044-.131-.133-.131ZM16.897 11.253a.959.959 0 0 0-.15-.53.874.874 0 0 0-.708-.436h-2.006c-.094 0-.132.039-.132.132v2.675c0 .093.038.133.132.133h.432c.092 0 .132-.037.132-.133v-2.181h1.161c.248 0 .489.164.489.411v1.773c0 .093.038.132.132.132h.39c.094 0 .132-.038.132-.132l-.004-1.844ZM13.291 12.588h-1.885l1.89-1.66a.34.34 0 0 0 .131-.244v-.264c0-.093-.04-.133-.132-.133h-2.734c-.093 0-.133.039-.133.132v.367c0 .093.039.132.133.132h1.752l-1.758 1.65a.347.347 0 0 0-.132.243v.287c0 .093.038.133.132.133h2.732c.093 0 .132-.039.132-.133v-.38c.003-.092-.035-.13-.128-.13ZM9.815 10.287h-2.73c-.095 0-.133.037-.133.132v.366c0 .092.037.132.132.132h1.03v2.18c0 .093.038.132.132.132h.436c.093 0 .132-.038.132-.132v-2.181h1.002c.093 0 .132-.039.132-.133v-.364c-.002-.09-.04-.132-.133-.132ZM6.338 12.605H4.155v-.552H5.9c.093 0 .132-.038.132-.132V11.6c0-.093-.037-.133-.132-.133H4.155v-.55h2.183c.093 0 .132-.038.132-.132v-.366c0-.092-.038-.132-.132-.132H3.615c-.092 0-.132.039-.132.132v2.678c0 .093.039.132.132.132h2.723c.093 0 .132-.038.132-.132v-.361c-.001-.093-.04-.131-.132-.131ZM2.861 10.287H2.45c-.093 0-.132.038-.132.132v1.042H.678v-1.042c0-.092-.038-.132-.132-.132H.132c-.094 0-.132.038-.132.132v2.68c0 .093.038.132.132.132h.414c.093 0 .133-.037.133-.133V12.04h1.64v1.058c0 .093.038.133.132.133h.412c.092 0 .132-.039.132-.133V10.42c-.003-.09-.041-.132-.134-.132Z"/>
    </g>
  </g>
  <defs>
    <clipPath id="a">
      <path fill="#fff" d="M0 0h24v24H0z"/>
    </clipPath>
    <clipPath id="b">
      <path fill="#fff" d="M0 0h24v2.942H0z" transform="translate(0 10.287)"/>
    </clipPath>
  </defs>
</svg>
