<svg xmlns="http://www.w3.org/2000/svg" width="24" height="24" fill="none">
  <g clip-path="url(#a)">
    <path fill="#fff" d="M12 19.5c3.75 0 7.159-3.379 6.768-4.125-.393-.75-2.268 1.875-6.768 1.875s-6-2.625-6.375-1.875S8.25 19.5 12 19.5Zm4.125-12c.623 0 1.125.502 1.125 1.125v1.5a1.123 1.123 0 0 1-1.556 1.04 1.123 1.123 0 0 1-.694-1.04v-1.5c0-.623.502-1.125 1.125-1.125Zm-8.25 0C8.498 7.5 9 8.002 9 8.625v1.5a1.123 1.123 0 0 1-1.556 1.04 1.123 1.123 0 0 1-.694-1.04v-1.5c0-.623.502-1.125 1.125-1.125ZM12 0C5.381 0 0 5.381 0 12s5.381 12 12 12 12-5.381 12-12S18.619 0 12 0Zm0 1.5c5.808 0 10.5 4.692 10.5 10.5S17.808 22.5 12 22.5 1.5 17.808 1.5 12 6.192 1.5 12 1.5Z"/>
  </g>
  <defs>
    <clipPath id="a">
      <path fill="#fff" d="M0 0h24v24H0z"/>
    </clipPath>
  </defs>
</svg>
