<svg xmlns="http://www.w3.org/2000/svg" width="24" height="24" fill="none">
  <g clip-path="url(#a)">
    <path fill="#3083FF" d="M19.2 4.8h-4.8v4.8h4.8V4.8Z"/>
    <path fill="#3083FF" d="M14.4 4.8H9.6v4.8h4.8V4.8ZM24 4.8h-4.8v4.8H24V4.8ZM19.2 0h-4.8v4.8h4.8V0ZM19.2 9.6h-4.8v4.8h4.8V9.6Z"/>
    <path fill="#083B87" d="M9.6 14.4H4.8v4.8h4.8v-4.8ZM4.8 14.4H0v4.8h4.8v-4.8ZM14.4 14.4H9.6v4.8h4.8v-4.8ZM9.6 9.6H4.8v4.8h4.8V9.6ZM9.6 19.2H4.8V24h4.8v-4.8Z"/>
  </g>
  <defs>
    <clipPath id="a">
      <path fill="#fff" d="M0 0h24v24H0z"/>
    </clipPath>
  </defs>
</svg>
