<svg xmlns="http://www.w3.org/2000/svg" width="24" height="24" fill="none">
  <path fill="#fff" d="M14.466 18.07a9.825 9.825 0 0 0 2.607.252c-1.104.239-2.392.24-3.862-.091-4.135-.931-6.515-4.488-9.672-4.536.243-.066.491-.112.742-.139 3.422-.363 5.829 3.534 10.186 4.515Zm9.457-5.556c-.553 2.986-3.56 5.887-8.746 4.72-4.356-.983-6.744-4.51-10.186-4.517C1.833 12.713.065 15.393 0 15.492c.026-.132.94-4.504 5.78-4.241 4.627.251 8.327 6.033 13.476 4.399 4.981-1.58 3.554-7.603-.605-7.758-4.159-.156-4.525 3.47-2.683 4.679 1.514.992 3.731-.361 3.438-2.115 0 0 .87 2.075-1.331 2.971-2.113.86-3.936-.966-4.188-2.673-.363-2.45 1.76-4.467 4.587-4.543 3.499-.094 6.002 3.32 5.45 6.303ZM12.993 9.14a4.872 4.872 0 0 0 2.748 5.546 4.867 4.867 0 0 1-4.065-5.923c.607-2.642 3.19-4.032 5.876-3.72.357.042 1.07.173 1.455.325-2.504-.353-5.437 1.258-6.015 3.772Zm5.19 1.518a1.04 1.04 0 0 1-1.047 1.033 1.04 1.04 0 0 1-1.047-1.033c0-.57.469-1.032 1.047-1.032a1.04 1.04 0 0 1 1.047 1.032Zm.669-1.902c1.53.141 2.685 1.254 2.661 2.835-.024 1.582-1.203 2.655-2.538 2.881-.297.05-.509.058-.848.051 1.294-.208 2.452-1.527 2.474-2.945.021-1.419-1.178-2.654-3.059-2.78.717-.108 1.155-.055 1.31-.042Z"/>
</svg>
