<svg xmlns="http://www.w3.org/2000/svg" width="24" height="24" fill="none">
  <g clip-path="url(#a)">
    <path fill="#88CFB0" d="M8.25 23.278v-7.123h7.5v2.894c0 2.3-1.875 4.23-4.275 4.23H8.25Z"/>
    <path fill="#F2C94C" d="M15.9 16.007V8.438h7.5v3.34c0 2.3-1.875 4.229-4.275 4.229H15.9Z"/>
    <path fill="#BD83CE" d="M15.75 8.438h-7.5v7.494h7.5V8.438Z"/>
    <path fill="#40BE88" d="M.6 8.29V4.951c0-2.3 1.875-4.23 4.275-4.23H8.1v7.57H.6Z"/>
    <path fill="#FF7474" d="M15.9 8.29V.722h3.225c2.325 0 4.275 1.855 4.275 4.23V8.29h-7.5Z"/>
    <path fill="#6776F9" d="M15.75.722h-7.5v7.494h7.5V.722Z"/>
    <path fill="#37C2E2" d="M.6 19.049v-2.894h7.5v7.123H4.875c-2.4 0-4.275-1.855-4.275-4.23Z"/>
    <path fill="#F2994A" d="M8.1 8.438H.6v7.494h7.5V8.438Z"/>
    <path fill="#2F2F3A" fill-rule="evenodd" d="M0 19.049V4.95C0 2.28 2.175.128 4.875.128h14.25C21.825.128 24 2.28 24 4.951v6.826c0 2.671-2.175 4.823-4.875 4.823H16.35v2.449c0 2.671-2.175 4.823-4.875 4.823h-6.6C2.175 23.872 0 21.72 0 19.049ZM7.5 7.622H1.275V4.877c0-1.93 1.575-3.562 3.6-3.562H7.5v6.307Zm11.625 7.791H16.5V9.032h6.225v2.82c0 1.929-1.575 3.561-3.6 3.561Zm-7.65 7.271H8.85v-5.861h6.225v2.3c0 1.93-1.575 3.561-3.6 3.561Zm-2.625-7.27h6.225V9.031H8.85v6.381Zm7.65-7.792h6.225v-2.67c0-2.004-1.65-3.562-3.6-3.562H16.5v6.232Zm-1.425 0H8.85V1.315h6.225v6.307ZM1.2 16.75v2.3c0 2.003 1.65 3.561 3.6 3.561h2.7V16.75H1.2Zm6.3-1.336H1.2V9.032h6.3v6.381Z" clip-rule="evenodd"/>
  </g>
  <defs>
    <clipPath id="a">
      <path fill="#fff" d="M0 0h24v24H0z"/>
    </clipPath>
  </defs>
</svg>
