<svg xmlns="http://www.w3.org/2000/svg" width="24" height="24" fill="none">
  <g clip-path="url(#a)">
    <path fill="#FFDE00" fill-rule="evenodd" d="M24 21.938v1.125a.937.937 0 0 0-.938.937h-1.125a.937.937 0 1 0-1.875 0h-1.125a.937.937 0 1 0-1.875 0h-1.125a.937.937 0 1 0-1.874 0h-1.126a.937.937 0 1 0-1.874 0H9.938a.938.938 0 0 0-1.876 0H6.938a.937.937 0 1 0-1.875 0H3.938a.937.937 0 1 0-1.876 0H.938A.937.937 0 0 0 0 23.062v-1.125a.937.937 0 1 0 0-1.875v-1.125a.937.937 0 1 0 0-1.875v-1.125a.937.937 0 1 0 0-1.874v-1.126a.937.937 0 1 0 0-1.874V9.938a.938.938 0 0 0 0-1.876V6.938a.938.938 0 1 0 0-1.875V3.938a.938.938 0 1 0 0-1.876V.938C.518.938.938.518.938 0h1.124a.938.938 0 1 0 1.876 0h1.124a.938.938 0 1 0 1.875 0h1.125a.938.938 0 0 0 1.876 0h1.124a.937.937 0 1 0 1.876 0h1.124a.937.937 0 1 0 1.876 0h1.124a.937.937 0 1 0 1.875 0h1.125a.937.937 0 1 0 1.875 0h1.125c0 .518.42.938.938.938v1.124a.937.937 0 1 0 0 1.876v1.124a.937.937 0 1 0 0 1.875v1.125a.938.938 0 0 0 0 1.876v1.124a.937.937 0 1 0 0 1.876v1.124a.937.937 0 1 0 0 1.876v1.124a.937.937 0 1 0 0 1.875v1.125a.937.937 0 1 0 0 1.875Z" clip-rule="evenodd"/>
    <path fill="#000" d="M6.963 17.104h.748c.384 0 .627-.248.627-.64v-8.76c0-.394-.243-.641-.627-.641h-.748V5.12h5.42c2.912 0 5.217 1.509 5.217 4.38 0 2.893-2.305 4.402-5.218 4.402h-1.86v2.562c0 .392.242.64.647.64h1.517v1.963H6.963v-1.963Zm5.258-5.227c1.92 0 3.033-.827 3.033-2.335 0-1.55-1.112-2.335-3.033-2.335h-1.7v4.69h1.7v-.02Z"/>
  </g>
  <defs>
    <clipPath id="a">
      <path fill="#fff" d="M0 0h24v24H0z"/>
    </clipPath>
  </defs>
</svg>
