<svg xmlns="http://www.w3.org/2000/svg" width="24" height="24" fill="none">
  <path fill="#fff" d="M10.634 14.336c-.066.018-.107.075-.09.147.024.057.082.107.155.082.058-.015.1-.072.09-.147-.024-.057-.081-.106-.155-.082ZM13.57 14.582c.065-.025.105-.082.09-.148-.017-.065-.074-.09-.14-.09a.124.124 0 0 0-.082.148c.017.058.074.09.131.09Z"/>
  <path fill="#fff" d="m18.622 15.198-.033-.017-2.977.608-.197.008.09-.747c.887-.008 1.796.017 2.674-.017l.049-.04c-.796-.205-1.624-.328-2.419-.524v-.025c.205-.18.492-.27.697-.492.32-.327.681-.607 1.1-.722.09-.05.246-.082.246-.204-.312.122-.69.114-1.009.23-.46.302-.853.803-1.403.886-.057-.148-.156-.287-.13-.46.466-.057.82-.386 1.23-.607.327-.239.869-.009 1.164-.311l-.017-.025c-.466.114-.902-.181-1.37-.009-.318.262-.655.534-1.09.534-.04 0-.057-.04-.049-.082l1.575-2.575.04-.124-.032-.008-1.838 2.584h-.041l-.393-.427 1.968-2.033c-.64.401-1.272.869-1.911 1.262.017-.418.008-.844.057-1.247.123-.344.238-.705.188-1.09-.082.164-.18.352-.255.541-.434.606-.082 1.542-.68 2.083h-.026c-.106-.04-.23-.082-.246-.205.278-.344.312-.787.327-1.238.025-.378.287-.648.46-.96.082-.173.23-.337.213-.542-.221.156-.377.443-.623.582-.386.304-.393.78-.41 1.239-.082.196-.13.41-.303.574-.025.008-.074.024-.082-.009l-.903-3.091.557 3.06.024.196-.656-.008-.049-2.961c-.188.828-.36 1.681-.542 2.526h-.032l-.295-.45c-.681-.42-.681-1.239-1.23-1.739v.017c.238.533.164 1.198.648 1.632.32.262.63.64.639 1.074-.14.041-.27.155-.426.131.032-.45-.23-.803-.566-1.114-.41-.411-.295-1.033-.443-1.559-.042-.065-.05-.181-.14-.205.14.475-.048.943-.033 1.427.042.451.616.648.665 1.09-.008.238.13.623-.165.722l-2.317-1.544 1.87 1.918c-.123.165-.263.337-.394.509-.009 0-.033.008-.041-.009l-1.705-2.393h-.034l1.288 2.272v.05c-.681.033-1.239-.304-1.796-.616a.67.67 0 0 0-.582-.057c.475.114.812.525 1.205.846.401.31.976.188 1.394.46-.008.056.009.122-.016.18-.041.09-.066.22-.165.254-.36-.262-.812-.295-1.222-.443-.36-.124-.508-.5-.795-.747-.107-.106-.197-.27-.353-.245.312.36.345.861.788 1.156.36.296.869.296 1.246.574 0 .017.009.05-.008.059l-2.56.524h.034l2.83.008-.009.607-3.01-.45-.025.025c.86.247 1.739.45 2.6.697-.106.205-.336.344-.509.492-.468.434-1.197.27-1.6.827-.008.017-.016.074.026.074.369-.278.886-.213 1.32-.36.5-.165.787-.706 1.353-.722.14.098.213.262.238.426-.008.163-.23.066-.335.116-.469 0-.796.352-1.19.533-.329.173-.73-.008-1.083.082-.082.016-.18.049-.213.116.435-.042.779.196 1.205.114.452-.114.861-.312 1.28-.5.105-.025.261-.04.343.024l-1.426 2.24h.024l1.976-1.977h.042l.401.36-2.173 1.657 2.043-1.173c.033.254-.009.525-.041.779.032.566-.467.927-.665 1.395-.008.105-.082.261.05.319.164-.402.508-.73.835-1.033.337-.475.09-1.198.467-1.656l.074-.009c.131.04.304.074.36.197-.303.468-.36 1.032-.516 1.567-.18.36-.582.559-.87.853 0 .016-.008.05.009.05.287-.148.574-.312.836-.534.418-.344.41-.87.631-1.304.082-.09.066-.303.238-.279l.608 2.659.033-2.978c.173 0 .37-.015.517.017l-.378 2.937c.197-.78.386-1.633.591-2.428.04-.009.066.025.106.033.255.401.738.68.886 1.132.123.312.082.714.37.934-.157-.327-.174-.713-.174-1.115-.008-.664-.721-1.042-.713-1.722l.312-.147c.131-.074.14.09.148.172 0 .476.369.804.525 1.222.213.485.008 1.084.173 1.583.107-.401.147-.828.221-1.239-.057-.508-.312-.86-.542-1.302v-.116c.722.37 1.435.82 2.149 1.23l.13.04-2.476-1.762c.139-.156.287-.246.434-.402h.04l2.003 1.943-1.321-1.846v-.04l.976.099c.476.115.919.386 1.46.295v-.025a4.452 4.452 0 0 1-.763-.32c-.37-.279-.886-.215-1.329-.305-.23-.066-.492-.14-.624-.36.106-.107.148-.295.304-.328.369.312.829.328 1.312.362.475.048.747.622 1.198.721-.188-.237-.36-.492-.542-.738-.352-.378-.91-.279-1.353-.467-.106-.05-.238-.115-.246-.237l2.96-.894.055-.056Zm-6.141-1.44.001-.001c.19-.185.492-.404.86-.404.1 0 .199.017.295.049.117.025.24.058.346.124a.007.007 0 0 1 .003.006v.025l-.002.005h-.006a3.18 3.18 0 0 0-.431-.031c-.483 0-.816.138-1.022.421-.093.351-.056.743-.021 1.122l.022.26-.002.007a.01.01 0 0 1-.005.002h-.001c-.04-.006-.051-.037-.062-.064a.12.12 0 0 0-.024-.044.01.01 0 0 1-.002-.006 2.62 2.62 0 0 0-.027-.57c-.034-.308-.071-.628.078-.901Zm-.329 2.092c.02 0 .042-.003.062-.011.001 0 .002-.002.004 0 .034.003.065-.014.096-.03a.193.193 0 0 1 .087-.028c.023 0 .043.009.064.024.029-.01.073-.045.066-.08-.027-.064-.03-.156.018-.203l.002-.002a.117.117 0 0 1 .038-.008c.057 0 .086.062.094.12.014.1.042.31-.128.336-.09.02-.186.029-.282.029-.234 0-.455-.055-.623-.102-.002 0-.002-.002-.003-.002-.074-.055-.047-.137-.024-.208.01-.03.02-.059.022-.085l.002-.004.02-.016c.022-.019.042-.036.07-.036.006 0 .01 0 .015.002h.004c.047.044.027.085.01.122-.018.038-.032.068.018.098a.183.183 0 0 1 .076-.018c.055 0 .103.027.15.052.042.024.089.05.142.05ZM9.85 13.62l.017-.024c.001-.001.002-.003.005-.004.15-.015.306-.045.458-.073a3.79 3.79 0 0 1 .69-.087 1.228 1.228 0 0 1 .58.13.597.597 0 0 0 .127.089c.074.043.144.084.17.168.113.38.092.808.07 1.224-.004.095-.01.193-.013.288 0 .002-.002.006-.004.006l-.025.008h-.006a.015.015 0 0 1-.004-.006c-.017-.066-.01-.135-.005-.208a.745.745 0 0 0-.003-.218c-.009-.105-.01-.213-.011-.317-.002-.232-.006-.474-.08-.682-.18-.228-.457-.338-.846-.338-.252 0-.515.045-.761.095h-.003c-.036-.008-.074-.008-.106-.008h-.076a.333.333 0 0 1-.172-.034.015.015 0 0 1-.003-.005l.001-.004Zm.043.79c-.045 0-.09-.003-.137-.01l-.004-.001c-.014-.015-.013-.039-.01-.06v-.02c0-.003.003-.006.007-.006.248-.02.466-.13.676-.237.06-.031.122-.062.183-.09h.002a.642.642 0 0 1 .068-.004c.197 0 .346.095.49.187.114.072.23.147.37.177.003 0 .004.001.005.004.002 0 .002.003 0 .006-.008.025-.023.07-.057.07l-.008-.001c-.133-.01-.255-.09-.373-.166-.124-.08-.241-.158-.371-.158a.373.373 0 0 0-.218.076.892.892 0 0 1-.623.232Zm1.503.122v.006l-.005.003c-.09.023-.177.061-.263.098-.142.06-.29.124-.448.124a.589.589 0 0 1-.17-.025l-.002-.001a.713.713 0 0 0-.29-.109c-.05-.01-.102-.021-.151-.038-.003 0-.005-.003-.005-.006-.006-.066.06-.093.121-.116a.349.349 0 0 0 .133-.079c.113-.095.242-.204.396-.204.04 0 .081.008.122.023.07.032.14.071.205.11.106.063.215.126.335.16.003 0 .004.003.005.005l.017.049Zm-.69.408a.494.494 0 0 1-.072-.006c-.081-.026-.163-.048-.242-.071a4.894 4.894 0 0 1-.374-.118c-.002-.001-.005-.003-.005-.006v-.032c0-.004.003-.006.006-.007a.417.417 0 0 1 .067-.005c.115 0 .228.042.337.081.106.04.215.079.324.079a.412.412 0 0 0 .245-.081.727.727 0 0 1 .446-.17.594.594 0 0 1 .155.024c.011.02.011.038.003.052-.016.025-.055.027-.072.027a.195.195 0 0 1-.028-.002c-.012-.002-.025-.002-.037-.002-.14 0-.26.061-.378.118-.116.059-.236.12-.375.12ZM13 17.606a.094.094 0 0 1-.038.01c-.037 0-.062-.028-.086-.055-.02-.023-.042-.047-.069-.053a1.514 1.514 0 0 0-.65-.158.97.97 0 0 0-.372.068c-.056.017-.099.057-.14.094-.055.05-.112.102-.198.102-.003 0-.007-.002-.007-.006-.012-.126.093-.183.194-.24.04-.022.079-.042.11-.067-.003-.108-.108-.137-.21-.163a.716.716 0 0 1-.081-.024l-.004-.003c-.01-.013-.014-.024-.011-.038.006-.025.038-.041.063-.053l.006-.001.127.041c.19.065.387.131.578.131.16 0 .295-.047.412-.147 0 0 0-.002.002-.002.03-.012.058-.034.086-.056.041-.033.085-.066.134-.066.029 0 .055.01.082.034.003.002.003.005.003.008-.016.06-.074.09-.129.12-.062.032-.125.065-.133.14.01.061.056.086.106.112.04.02.08.042.106.081.012.018.028.035.046.053.038.039.078.08.078.132-.002.003-.003.006-.005.006Zm.316-.456c0 .003-.004.007-.008.007-.125 0-.212-.111-.288-.209a1.01 1.01 0 0 0-.06-.071c-.172 0-.348.027-.517.053a3.447 3.447 0 0 1-.534.055 1.43 1.43 0 0 1-.283-.026l-.374.008-.062.053c-.092.078-.196.168-.307.168a.205.205 0 0 1-.054-.007c-.004-.002-.005-.004-.005-.008v-.033l.003-.006c.234-.2.452-.4.547-.652a.01.01 0 0 1 .005-.005.062.062 0 0 1 .062.02c.012.014.017.033.012.052a.363.363 0 0 1-.026.09c-.022.058-.046.125-.023.165.012.02.034.034.066.04a.808.808 0 0 0 .26-.075c.047-.02.097-.04.148-.056.002-.002.004 0 .006 0a.307.307 0 0 0 .168.048c.073 0 .146-.021.218-.041.04-.012.079-.023.118-.031h.002c.038.006.079.015.118.026a.78.78 0 0 0 .185.03c.07 0 .126-.02.174-.067l-.012-.045c-.018-.059-.04-.132-.015-.166.015-.02.043-.022.086-.007l.004.004c.03.055.058.114.084.171.079.164.161.335.3.467a.01.01 0 0 1 .002.005v.043Zm1.121-2.449-.025.032a.01.01 0 0 1-.006.003h-.013c-.16 0-.313.058-.462.115-.144.055-.294.112-.445.112a.571.571 0 0 1-.28-.072 1.03 1.03 0 0 0-.498-.18c-.003 0-.006-.003-.006-.006 0-.059.055-.066.103-.066a.3.3 0 0 1 .033.002h.062c.117 0 .208.059.298.116.087.056.177.114.289.114h.01c.103-.028.207-.063.307-.096.16-.053.325-.11.496-.14h.037c.036 0 .103 0 .103.065-.002-.001-.002 0-.003.001ZM12.9 14.44l.002-.002c.196-.12.44-.267.697-.267.081 0 .16.016.236.044l.038.023c.126.074.244.144.357.242a.01.01 0 0 1 .003.006c-.006.065-.061.076-.11.084-.024.005-.047.008-.065.02-.116.065-.342.173-.568.173a.53.53 0 0 1-.325-.101l-.002-.002c-.027-.036-.088-.05-.147-.066-.062-.016-.12-.03-.136-.07-.01-.022-.003-.05.02-.084Zm1.605-.026a1.308 1.308 0 0 0-.032.004h-.012c-.171 0-.306-.093-.437-.183-.13-.089-.255-.175-.412-.175a.475.475 0 0 0-.058.004l-.023-.001c-.126 0-.23.066-.33.13s-.203.13-.326.13a.356.356 0 0 1-.06-.004c-.004-.001-.007-.004-.007-.007v-.058a.01.01 0 0 1 .003-.005c.283-.224.53-.334.757-.334.092 0 .181.018.267.054.2.143.45.26.787.369.004.001.006.005.005.008-.014.058-.074.064-.122.068Z"/>
  <path fill="#fff" d="M13.576 14.582c.066-.025.106-.082.091-.148-.017-.065-.074-.09-.14-.09a.124.124 0 0 0-.082.148c.017.058.074.09.131.09ZM13.216 4.11v.025a1.22 1.22 0 0 0-.697.443c-.057-.287-.099-.64-.04-.952l.032-.016c.156.262.443.392.705.5ZM11.903 3.617c.009.295.05.656-.032.934-.18-.237-.443-.337-.722-.352.239-.156.583-.272.706-.582h.048ZM11.412 4.79c-.123.139-.353.025-.517.018.122-.066.32-.133.466-.083l.05.065ZM13.52 4.79c-.14.025-.271.115-.435.065a.075.075 0 0 1 0-.099c.114-.106.312-.057.426 0 .008.009.008.017.008.034Z"/>
  <path fill="#fff" d="M3.014 0v17.765c-.058 1.186.025 2.471 1.08 3.004 2.389.67 4.762 1.333 7.152 1.948.351.155.72.408.884.778.018.005.033.01.047.01.117 0 .128-.19.23-.247.434-.622 1.293-.582 1.947-.852 1.98-.524 3.953-1.08 5.925-1.612.712-.311 1.063-.966 1.179-1.702l.008-19.09H3.014V0Zm16.148 5.7-2.444-.016-.025-.049c.114-.156.262-.295.377-.451a32.39 32.39 0 0 0-2.804.008c.04.156.197.287.114.468a.509.509 0 0 1-.246.213.418.418 0 0 1-.329-.065c-.09-.163.148-.106.197-.215.188-.147-.017-.418.18-.557-.016-.099.009-.19.083-.23l.032-.008 3.593.008c.049-.008.04.05.04.082l-.327.37c.016.057.09.065.147.057h1.37c.074-.106-.04-.215-.082-.312.533.106 1.074.253 1.6.401a26.69 26.69 0 0 1-1.609.623c.018-.122.174-.195.133-.326Zm-2.026.812-2.182-.017c-.016-.025-.04-.066-.016-.099l.755-.795-.025-.016-1.132-.008c-.057-.066-.107-.148-.073-.238l.114-.05 1.846.01c.032.016.016.04.024.065-.222.255-.476.491-.665.755H17.2a.517.517 0 0 0-.049-.27c.419.098.845.23 1.264.352v.025l-1.304.557c-.049-.074.074-.148.082-.238l-.057-.033Zm-7.102-1.353H7.213l.385.467v.057c-.795.033-1.607.008-2.411.016-.032.148.124.237.148.377l-1.6-.598v-.032a53.74 53.74 0 0 1 1.64-.46c-.008.114-.188.19-.173.329.517.016 1.05.024 1.56-.009-.115-.154-.256-.312-.345-.483l3.764.015c.106.066.214.172.239.296-.058.19.008.386.105.542.025.04-.024.057-.057.065a.53.53 0 0 1-.393-.213c-.041-.107-.008-.23.009-.337l-.05-.032Zm-1.247.492.836.836c.017.057-.049.05-.09.05l-2.411.007c-.065.075.025.156.025.238-.426-.124-.861-.328-1.279-.5l1.279-.452c.04.124-.14.197-.074.312.542.042 1.1.017 1.648.025l.017-.025-.787-.827V5.28h1.968v.32H8.78l.008.05ZM7.656 2.509v.042c-.123.147-.262.287-.345.45l2.716.017.139.302H6.458a3.56 3.56 0 0 1 .466-.45L6.9 2.845H5.154c-.009.131.106.198.147.32-.508-.099-1.042-.263-1.566-.377V2.77c.509-.221 1.017-.418 1.526-.614.016.122-.106.204-.106.337l2.5.015Zm-.452-.802c.77 0 1.55-.009 2.321.008l-.016.074c-.222.238-.492.468-.673.721.327.042.68.017 1.025.025l.114.353H7.943c-.041 0-.017-.04-.024-.057.27-.254.557-.492.804-.77-.517-.034-1.05-.01-1.575-.017-.122.097.131.196.049.295l-1.255-.403c.41-.18.844-.369 1.279-.516.04.114-.247.253-.017.287Zm3.19 1.213c-.09.025-.164-.017-.238-.04a.491.491 0 0 1-.18-.296c.008-.124.05-.238.172-.295.106-.057.287-.042.353.065-.115.155-.115.37-.106.566Zm-5.183.967c0-.05.041-.082.082-.099a.88.88 0 0 1 .795.54c-.065.108-.245.058-.352.042-.23-.056-.385-.294-.525-.483Zm.132.312-.008.074c-.205.082-.517.114-.714 0-.057-.074-.164-.131-.122-.245.065-.133.204-.14.32-.19a.686.686 0 0 1 .524.361Zm.426-.376c-.008-.066.057-.107.115-.116.508-.171.795.353 1.082.64.032.065-.033.13-.099.13-.499.173-.786-.367-1.098-.654Zm.796-.067c0-.131.156-.082.237-.124.476.008.877.435 1.107.82-.008.058-.09.091-.147.107-.574.1-.828-.5-1.197-.803Zm.812-.074c.032-.14.196-.114.295-.156.558.09 1.058.566 1.33 1.05-.026.09-.14.09-.214.122a.686.686 0 0 1-.508-.14c-.289-.26-.6-.596-.903-.876Zm.926-.007c-.016-.124.123-.114.189-.164.664-.066 1.058.443 1.517.844.082.042.164.107.238.164-.025.131-.181.155-.279.205a.965.965 0 0 1-.852-.213c-.272-.287-.493-.616-.813-.836Zm1.336.212c-.147-.107-.278-.247-.442-.32-.017-.017 0-.05-.009-.074.312-.123.755-.123.96.147v.034c-.188.05-.287.296-.508.213Zm.878 1.55c-.106-.132.066-.337-.106-.443-.099-.04-.025-.147-.016-.188-.058-.05-.205-.05-.14-.164.008-.082.181-.155.049-.23-.14-.13-.337-.18-.426-.352.065-.198.303-.222.401-.395.017-.09-.14-.115-.082-.221.173-.107.401-.017.607-.017.188.057.484.148.673 0 .017-.033.008-.082-.017-.099-.377-.172-.877.28-1.164-.156-.05-.147.106-.18.164-.253.042-.09-.057-.197.017-.27.508.05 1.099-.066 1.41.376.025-.115.057-.23.18-.287a.427.427 0 0 1 .33.09c.056.082.09.172.098.272.255-.468.829-.452 1.346-.427.049.017.099.058.074.123-.009.057-.025.116-.017.181.082.074.304.074.205.254-.082.147-.247.147-.393.156-.213-.042-.427-.19-.681-.107-.057.04-.115.122-.05.18.353.196.674-.132 1.067-.066.057.025.139.025.164.09-.238.254.213.353.304.534-.017.173-.165.287-.279.426-.017.1.033.247-.082.296l-.213.072.122.107c-.008.197-.164.345-.04.533-.008.05-.057.057-.107.05-.106-.082-.262-.009-.393-.017-.344-.074-.739-.025-.977-.344-.14.04-.147.262-.327.262-.1.008-.188-.033-.23-.114-.034-.042 0-.124-.082-.131-.123.032-.197.164-.32.221-.314.124-.732.14-1.069.058Zm3.47-2.853c0-.099-.18-.156-.075-.246.14-.058.386-.083.443.099.017.122.025.27-.057.369a.317.317 0 0 1-.329.139c-.04-.116.042-.231.017-.36Zm5.143 1.427c-.205.171-.386.41-.665.41-.123.009-.262.009-.328-.073v-.04c.28-.23.542-.583.944-.427.025.025.065.032.082.057l-.034.073Zm.294-.131c.18-.057.468-.082.574.097.032.066.008.148-.009.205-.106.198-.32.148-.508.173l-.37-.098c.002-.157.198-.28.313-.377Zm-1 .049c-.288.238-.575.615-.969.434l.034-.082c.287-.205.582-.696.951-.419l-.017.067Zm-.623-.1c-.403.296-.788.92-1.338.6-.017-.082.066-.165.106-.213.32-.287.73-.82 1.23-.477v.09h.002Zm-.944-.04c-.393.353-.713.96-1.329.77l-.057-.056c.213-.279.492-.541.755-.788.156-.122.353-.254.566-.156.041.034.107.073.114.123l-.049.107Zm-.795-.082c-.394.41-.739.787-1.255.992-.107.057-.255.025-.361-.007-.066-.057-.082-.19-.034-.272.361-.41.813-.77 1.321-.894.123 0 .247-.008.336.082l-.007.1Zm-.837-.099-.484.344c-.196.075-.287-.204-.451-.262-.017-.097.008-.23.123-.261.261-.131.548 0 .812.04.041.042.05.106 0 .14Zm5.38-.884c-.468.156-.943.344-1.42.475.017-.131.222-.212.173-.353h-1.755c.09.14.262.27.319.435l-.099.032-3.518-.016c-.106-.057-.114-.172-.106-.295l.05-.025h2.943c-.09-.14-.255-.278-.32-.443.812-.04 1.64-.017 2.452-.025.04-.057-.025-.123-.058-.171-.048-.058-.122-.098-.139-.173l.042-.015 1.476.532-.04.042Zm-5.634-.937c-.008-.057.04-.082.082-.089l2.19-.008c.099-.099-.099-.19-.057-.295.443.139.878.335 1.312.5l-1.312.484-.049-.018c.008-.097.114-.163.123-.269l-.05-.033-1.353.008c-.025.017-.057.025-.074.05l.008.05.566.582-.008.082c-.64.033-1.296.008-1.944.016l.106-.344 1.067-.016v-.05l-.607-.65Zm6.164 7.543-.005 9.734c-.08.492-.314 1.126-.96 1.42-.804.217-1.618.44-2.408.657-1.143.315-2.325.64-3.491.948l-.04.015c-.187.076-.399.126-.622.18-.492.116-1.047.247-1.415.712-.24-.28-.559-.464-.817-.578l-.051-.018c-2.334-.599-4.603-1.232-7.113-1.937-.489-.256-.965-.789-.874-2.682V7.302c.062-.02.128-.03.182-.069 1.296-.451 2.239.55 3.33.878.63.32 1.542.32 2.238.124 1.182-.542 2.378-1.264 3.813-.936.845.107 1.51.649 2.33.82.542.23 1.255.254 1.82.066 1.35-.317 2.555-1.295 4.087-.872V9.33h-.004Z"/>
</svg>
