<svg xmlns="http://www.w3.org/2000/svg" width="24" height="24" fill="none">
  <g clip-path="url(#a)">
    <path fill="#fff" fill-rule="evenodd" d="M21.6 0C22.925 0 24 1.075 24 2.4v19.2c0 1.325-1.075 2.4-2.4 2.4H2.4A2.401 2.401 0 0 1 0 21.6V2.4C0 1.075 1.075 0 2.4 0h19.2Zm-6.074 5.456a.208.208 0 0 0-.193.132l-3.24 8.448-1.416 3.69c-.021.054-.072.176-.191.133l.119.298c.094.236.323.39.577.39h1.474a.621.621 0 0 0 .575-.384l5.124-12.422a.207.207 0 0 0-.192-.285h-2.637Zm-5.315 11.712c-1.526-3.809-3.073-7.61-4.57-11.43-.046-.123.046-.28.192-.283.95-.003 1.898-.004 2.847 0a.213.213 0 0 1 .192.134l2.935 7.783-.27.703-3.062-8.119H6.268l4.279 10.702-.145.376c-.021.055-.072.177-.191.134Z" clip-rule="evenodd"/>
  </g>
  <defs>
    <clipPath id="a">
      <path fill="#fff" d="M0 0h24v24H0z"/>
    </clipPath>
  </defs>
</svg>
