<svg xmlns="http://www.w3.org/2000/svg" width="24" height="24" fill="none">
  <g clip-path="url(#a)">
    <path fill="#38BDF8" fill-rule="evenodd" d="M12 5.343c-3.2 0-5.2 1.59-6 4.772 1.2-1.59 2.6-2.187 4.2-1.79.913.227 1.566.885 2.287 1.614C13.664 11.126 15.026 12.5 18 12.5c3.2 0 5.2-1.59 6-4.771-1.2 1.59-2.6 2.187-4.2 1.789-.913-.227-1.566-.885-2.288-1.614-1.176-1.188-2.538-2.56-5.512-2.56ZM6 12.5c-3.2 0-5.2 1.59-6 4.771 1.2-1.59 2.6-2.186 4.2-1.789.913.227 1.566.885 2.288 1.614 1.176 1.187 2.538 2.56 5.512 2.56 3.2 0 5.2-1.59 6-4.77-1.2 1.59-2.6 2.187-4.2 1.79-.913-.228-1.566-.886-2.287-1.615C10.336 13.874 8.974 12.5 6 12.5Z" clip-rule="evenodd"/>
  </g>
  <defs>
    <clipPath id="a">
      <path fill="#fff" d="M0 0h24v24H0z"/>
    </clipPath>
  </defs>
</svg>
